<?xml version="1.0" encoding="utf-8"?>
<!-- Generator: Adobe Illustrator 16.0.0, SVG Export Plug-In . SVG Version: 6.00 Build 0)  -->
<!DOCTYPE svg PUBLIC "-//W3C//DTD SVG 1.1//EN" "http://www.w3.org/Graphics/SVG/1.1/DTD/svg11.dtd">
<svg version="1.1" id="Layer_1" xmlns="http://www.w3.org/2000/svg" xmlns:xlink="http://www.w3.org/1999/xlink" x="0px" y="0px"
	 width="130px" height="40px" viewBox="0 0 130 40" enable-background="new 0 0 130 40" xml:space="preserve">
<g>
	<path d="M126.094,0h-122c-2.209,0-4,1.791-4,4v32c0,2.209,1.791,4,4,4h122c2.209,0,4-1.791,4-4V4
		C130.094,1.791,128.303,0,126.094,0L126.094,0z"/>
</g>
<path fill="#FFFFFF" d="M23.598,13.232c2.859,0,4.688,2.742,4.688,2.742s-2.789,1.5-2.789,4.758c0,3.867,3.504,4.992,3.504,4.992
	s-2.766,6.504-5.871,6.504c-1.746,0-1.863-0.996-4.184-0.996c-2.016,0-2.695,0.996-4.23,0.996c-2.93,0-6.715-6.34-6.715-11.496
	c0-5.355,3.832-7.5,6.234-7.5c2.109,0,2.988,1.23,4.688,1.23C20.352,14.463,21.477,13.232,23.598,13.232z M23.105,7.771
	c0.422,2.625-1.98,5.871-4.852,5.766C17.832,10.197,20.926,7.947,23.105,7.771z"/>
<g>
	<g>
		<path fill="#FFFFFF" d="M43.669,13.507c0.629-0.619,0.969-1.519,0.969-2.618c0-1.09-0.35-1.869-0.95-2.419
			c-0.589-0.55-1.479-0.839-2.729-0.839c-0.689,0-1.319,0.06-1.849,0.14v6.626c0.439,0.05,0.959,0.08,1.579,0.08
			C42,14.477,43.039,14.137,43.669,13.507z M39.981,8.41C40.21,8.36,40.55,8.32,41,8.32c1.839,0,2.739,1.009,2.729,2.599
			c0,1.818-1.009,2.858-2.868,2.858c-0.34,0-0.66-0.011-0.879-0.051L39.981,8.41L39.981,8.41z M47.67,9.47
			c-1.339,0-2.398,0.949-2.398,2.568c0,1.529,1.009,2.488,2.318,2.488c1.169,0,2.409-0.779,2.409-2.568
			C49.999,10.479,49.059,9.47,47.67,9.47z M47.63,13.867c-0.859,0-1.469-0.8-1.469-1.859c0-0.919,0.45-1.879,1.489-1.879
			s1.449,1.04,1.449,1.859C49.099,13.077,48.47,13.867,47.63,13.867z M52.74,14.417l0.779-2.299c0.17-0.52,0.32-1.02,0.439-1.6
			h0.021c0.12,0.57,0.26,1.05,0.43,1.589l0.739,2.31h0.8l1.56-4.838h-0.87l-0.689,2.429c-0.159,0.57-0.29,1.08-0.37,1.569H55.55
			c-0.11-0.489-0.25-0.999-0.43-1.579l-0.75-2.419h-0.74l-0.79,2.469c-0.16,0.52-0.319,1.04-0.43,1.529h-0.029
			c-0.09-0.5-0.221-0.999-0.36-1.539l-0.64-2.459h-0.899l1.459,4.838H52.74z M61.279,14.417h0.879v-2.889
			c0-1.659-1.039-2.059-1.709-2.059c-0.799,0-1.359,0.449-1.599,0.909h-0.02l-0.05-0.8h-0.779c0.03,0.4,0.04,0.81,0.04,1.31v3.528
			h0.879v-2.909c0-0.149,0.021-0.3,0.061-0.409c0.15-0.49,0.6-0.899,1.18-0.899c0.829,0,1.119,0.649,1.119,1.429L61.279,14.417
			L61.279,14.417z M64.051,7.32h-0.88v7.097h0.88V7.32z M67.609,9.47c-1.34,0-2.398,0.949-2.398,2.568
			c0,1.529,1.01,2.488,2.318,2.488c1.17,0,2.408-0.779,2.408-2.568C69.938,10.479,68.999,9.47,67.609,9.47z M67.57,13.867
			c-0.86,0-1.471-0.8-1.471-1.859c0-0.919,0.45-1.879,1.489-1.879s1.449,1.04,1.449,1.859C69.039,13.077,68.409,13.867,67.57,13.867
			z M74.909,13.257v-1.809c0-0.97-0.36-1.979-1.839-1.979c-0.609,0-1.189,0.17-1.59,0.43l0.199,0.579
			c0.34-0.22,0.811-0.359,1.26-0.359c0.99,0,1.101,0.72,1.101,1.119v0.101c-1.87-0.011-2.909,0.629-2.909,1.799
			c0,0.699,0.5,1.389,1.479,1.389c0.689,0,1.209-0.34,1.479-0.72h0.03l0.07,0.61h0.8C74.93,14.087,74.909,13.677,74.909,13.257z
			 M74.061,12.787c0,0.091-0.021,0.19-0.052,0.28c-0.139,0.41-0.538,0.81-1.169,0.81c-0.449,0-0.83-0.27-0.83-0.84
			c0-0.939,1.09-1.109,2.051-1.089V12.787z M78.479,14.526c0.791,0,1.379-0.409,1.649-0.949h0.021l0.039,0.84h0.791
			c-0.03-0.33-0.041-0.82-0.041-1.25V7.32h-0.877v2.889h-0.021c-0.221-0.39-0.721-0.739-1.46-0.739
			c-1.179,0-2.179,0.989-2.168,2.599C76.411,13.537,77.311,14.526,78.479,14.526z M78.749,10.159c0.66,0,1.14,0.46,1.271,1.02
			c0.029,0.109,0.041,0.26,0.041,0.369v0.84c0,0.14-0.012,0.26-0.041,0.38c-0.16,0.659-0.699,1.05-1.289,1.05
			c-0.949,0-1.431-0.81-1.431-1.789C77.3,10.959,77.841,10.159,78.749,10.159z M86.488,14.526c1.171,0,2.408-0.779,2.408-2.568
			c0-1.479-0.938-2.488-2.328-2.488c-1.34,0-2.397,0.949-2.397,2.568C84.171,13.567,85.182,14.526,86.488,14.526z M86.55,10.129
			c1.039,0,1.449,1.04,1.449,1.859c0,1.089-0.63,1.879-1.47,1.879c-0.859,0-1.471-0.8-1.471-1.859
			C85.061,11.089,85.512,10.129,86.55,10.129z M90.91,14.417v-2.909c0-0.149,0.021-0.3,0.061-0.409c0.149-0.49,0.6-0.899,1.18-0.899
			c0.83,0,1.119,0.649,1.119,1.429v2.789h0.879v-2.889c0-1.659-1.039-2.059-1.709-2.059c-0.799,0-1.358,0.449-1.6,0.909h-0.02
			l-0.051-0.8h-0.778c0.028,0.4,0.038,0.81,0.038,1.31v3.528H90.91z M99.159,8.19L98.3,8.42v1.159h-0.749v0.67H98.3v2.639
			c0,0.569,0.091,0.999,0.341,1.259c0.211,0.24,0.539,0.37,0.948,0.37c0.341,0,0.61-0.05,0.78-0.12l-0.04-0.659
			c-0.108,0.029-0.279,0.06-0.511,0.06c-0.489,0-0.659-0.34-0.659-0.939v-2.608h1.26v-0.67h-1.26V8.19z M102.05,11.498
			c0-0.17,0.011-0.3,0.062-0.42c0.158-0.479,0.609-0.879,1.179-0.879c0.829,0,1.12,0.659,1.12,1.439v2.778h0.879v-2.879
			c0-1.669-1.039-2.068-1.689-2.068c-0.33,0-0.639,0.1-0.898,0.249c-0.27,0.15-0.489,0.37-0.631,0.62h-0.02V7.32h-0.879v7.097h0.879
			L102.05,11.498L102.05,11.498z M109.391,14.517c0.77,0,1.299-0.16,1.607-0.3l-0.148-0.63c-0.33,0.14-0.711,0.25-1.341,0.25
			c-0.879,0-1.639-0.489-1.657-1.679h3.396c0.01-0.09,0.029-0.23,0.029-0.41c0-0.89-0.42-2.278-1.998-2.278
			c-1.409,0-2.27,1.149-2.27,2.608S107.898,14.517,109.391,14.517z M109.209,10.099c0.989,0,1.229,0.87,1.221,1.43h-2.568
			C107.93,10.919,108.318,10.099,109.209,10.099z M41.939,19.281L38.05,31.417h2.287l1.044-3.438h3.853l1.098,3.438h2.377
			l-3.943-12.136H41.939z M41.741,26.303l0.937-2.988c0.216-0.721,0.396-1.565,0.576-2.269h0.036c0.18,0.702,0.378,1.53,0.612,2.269
			l0.955,2.988H41.741z M55.133,22.45c-1.332,0-2.358,0.558-3.006,1.548H52.09l-0.107-1.35h-1.945
			c0.036,0.828,0.072,1.764,0.072,2.916v9.416h2.214v-4.537h0.036c0.45,0.703,1.368,1.171,2.467,1.171
			c1.999,0,3.997-1.53,3.997-4.699C58.824,24.18,57.15,22.45,55.133,22.45z M54.341,29.904c-0.937,0-1.729-0.648-1.944-1.549
			c-0.055-0.198-0.072-0.396-0.072-0.612v-1.351c0-0.181,0.036-0.379,0.09-0.559c0.217-0.973,1.063-1.639,1.98-1.639
			c1.423,0,2.18,1.261,2.18,2.81C56.574,28.734,55.746,29.904,54.341,29.904z M66.096,22.45c-1.333,0-2.359,0.558-3.008,1.548
			h-0.035l-0.108-1.35H61c0.035,0.828,0.071,1.764,0.071,2.916v9.416h2.215v-4.537h0.036c0.45,0.703,1.368,1.171,2.467,1.171
			c1.998,0,3.997-1.53,3.997-4.699C69.786,24.18,68.111,22.45,66.096,22.45z M65.303,29.904c-0.936,0-1.729-0.648-1.944-1.549
			c-0.054-0.198-0.072-0.396-0.072-0.612v-1.351c0-0.181,0.036-0.379,0.09-0.559c0.216-0.973,1.063-1.639,1.981-1.639
			c1.421,0,2.178,1.261,2.178,2.81C67.535,28.734,66.707,29.904,65.303,29.904z M79.63,24.357c-1.62-0.629-2.321-1.063-2.321-1.998
			c0-0.701,0.611-1.459,2.017-1.459c1.135,0,1.979,0.343,2.413,0.576l0.539-1.782c-0.629-0.324-1.603-0.612-2.916-0.612
			c-2.629,0-4.285,1.513-4.285,3.493c0,1.746,1.277,2.809,3.277,3.529c1.547,0.558,2.16,1.098,2.16,2.017
			c0,0.989-0.793,1.655-2.216,1.655c-1.135,0-2.215-0.359-2.935-0.773l-0.486,1.837c0.667,0.396,1.999,0.757,3.277,0.757
			c3.133,0,4.607-1.693,4.607-3.638C82.764,26.213,81.736,25.15,79.63,24.357z M87.298,20.146l-2.159,0.522v1.98h-1.262v1.656h1.262
			v4.122c0,1.152,0.215,1.944,0.684,2.449c0.414,0.449,1.099,0.72,1.908,0.72c0.703,0,1.278-0.09,1.604-0.216l-0.037-1.692
			c-0.197,0.055-0.484,0.107-0.863,0.107c-0.847,0-1.135-0.559-1.135-1.62v-3.87h2.105v-1.656h-2.105L87.298,20.146L87.298,20.146z
			 M94.796,22.45c-2.647,0-4.538,1.765-4.538,4.646c0,2.809,1.909,4.52,4.395,4.52c2.231,0,4.5-1.44,4.5-4.663
			C99.152,24.286,97.406,22.45,94.796,22.45z M94.725,30.012c-1.352,0-2.181-1.277-2.181-2.971c0-1.458,0.631-2.971,2.197-2.971
			c1.513,0,2.125,1.565,2.125,2.936C96.866,28.77,95.982,30.012,94.725,30.012z M102.967,24.322h-0.072l-0.07-1.674h-1.928
			c0.055,0.791,0.071,1.638,0.071,2.826v5.941h2.216v-4.538c0-0.252,0.035-0.485,0.071-0.685c0.197-0.989,0.918-1.674,1.979-1.674
			c0.271,0,0.47,0.035,0.648,0.071v-2.089c-0.18-0.036-0.307-0.054-0.521-0.054C104.425,22.45,103.398,23.08,102.967,24.322z
			 M114.884,26.718c0-1.927-0.936-4.268-3.78-4.268c-2.81,0-4.285,2.286-4.285,4.717c0,2.685,1.675,4.431,4.52,4.431
			c1.26,0,2.305-0.234,3.061-0.541l-0.323-1.529c-0.666,0.252-1.404,0.396-2.431,0.396c-1.403,0-2.646-0.684-2.701-2.269h5.869
			C114.85,27.455,114.884,27.132,114.884,26.718z M108.941,26.105c0.091-0.9,0.666-2.144,2.035-2.144
			c1.477,0,1.836,1.332,1.818,2.144H108.941z"/>
	</g>
</g>
</svg>
