<?xml version="1.0" encoding="utf-8"?>
<!-- Generator: Adobe Illustrator 16.0.0, SVG Export Plug-In . SVG Version: 6.00 Build 0)  -->
<!DOCTYPE svg PUBLIC "-//W3C//DTD SVG 1.1//EN" "http://www.w3.org/Graphics/SVG/1.1/DTD/svg11.dtd">
<svg version="1.1" id="Layer_1" xmlns="http://www.w3.org/2000/svg" xmlns:xlink="http://www.w3.org/1999/xlink" x="0px" y="0px"
	 width="40px" height="49.004px" viewBox="0 0 40 49.004" enable-background="new 0 0 40 49.004" xml:space="preserve">
<path fill="#FFFFFF" d="M7.407,24.502c0,1.04-0.829,1.885-1.852,1.885H1.852C0.828,26.387,0,25.542,0,24.502l0,0
	c0-1.041,0.828-1.886,1.852-1.886h3.704C6.578,22.616,7.407,23.461,7.407,24.502L7.407,24.502z M7.407,12.439
	c0-1.041-0.829-1.886-1.852-1.886H1.852C0.828,10.554,0,11.398,0,12.439l0,0c0,1.041,0.828,1.885,1.852,1.885h3.704
	C6.578,14.324,7.407,13.48,7.407,12.439L7.407,12.439z M7.407,36.564c0-1.042-0.829-1.885-1.852-1.885H1.852
	C0.828,34.68,0,35.522,0,36.564l0,0c0,1.041,0.828,1.885,1.852,1.885h3.704C6.578,38.449,7.407,37.605,7.407,36.564L7.407,36.564z
	 M40,6.031v36.94c0,3.332-2.654,6.032-5.926,6.032H8.148c-3.273,0-5.926-2.7-5.926-6.032v-3.015h3.333
	c1.837,0,3.333-1.522,3.333-3.393s-1.496-3.393-3.333-3.393H2.223v-5.277h3.333c1.837,0,3.333-1.522,3.333-3.393
	c0-1.871-1.496-3.394-3.333-3.394H2.223v-5.277h3.333c1.837,0,3.333-1.521,3.333-3.392c0-1.871-1.496-3.394-3.333-3.394H2.223V6.031
	C2.223,2.7,4.875,0,8.148,0h25.926C37.346,0,40,2.7,40,6.031z M16.508,17.878c0,3.212,2.559,5.815,5.715,5.815
	c3.154,0,5.713-2.604,5.713-5.815s-2.559-5.815-5.713-5.815C19.066,12.063,16.508,14.666,16.508,17.878z M31.11,32.095
	c0-3.569-2.843-6.462-6.349-6.462h-5.079c-3.507,0-6.35,2.893-6.35,6.462v2.585H31.11V32.095z"/>
</svg>
