<?xml version="1.0" encoding="utf-8"?>
<!-- Generator: Adobe Illustrator 16.0.0, SVG Export Plug-In . SVG Version: 6.00 Build 0)  -->
<!DOCTYPE svg PUBLIC "-//W3C//DTD SVG 1.1//EN" "http://www.w3.org/Graphics/SVG/1.1/DTD/svg11.dtd">
<svg version="1.1" id="Layer_1" xmlns="http://www.w3.org/2000/svg" xmlns:xlink="http://www.w3.org/1999/xlink" x="0px" y="0px"
	 width="44px" height="41px" viewBox="0 0 44 41" enable-background="new 0 0 44 41" xml:space="preserve">
<g>
	<g>
		<path fill="#FFFFFF" d="M43.262,18.527l-6.668-6.677V4.137c0-1.395-1.129-2.525-2.523-2.525c-1.393,0-2.521,1.13-2.521,2.525
			v2.663l-4.965-4.972c-2.455-2.457-6.723-2.453-9.172,0.004L0.739,18.527c-0.984,0.988-0.984,2.586,0,3.572s2.583,0.986,3.568,0
			L20.979,5.403c0.543-0.541,1.5-0.541,2.041-0.001L39.693,22.1c0.494,0.492,1.139,0.738,1.783,0.738
			c0.646,0,1.292-0.246,1.785-0.738C44.246,21.113,44.246,19.515,43.262,18.527z M22.876,10.196c-0.484-0.484-1.269-0.484-1.752,0
			L6.459,24.877c-0.231,0.232-0.363,0.549-0.363,0.879v10.709c0,2.512,2.035,4.549,4.543,4.549h7.261v-11.26h8.198v11.26h7.261
			c2.51,0,4.544-2.037,4.544-4.549V25.756c0-0.33-0.13-0.646-0.362-0.879L22.876,10.196z"/>
	</g>
</g>
</svg>
