<?xml version="1.0" encoding="utf-8"?>
<!-- Generator: Adobe Illustrator 16.0.0, SVG Export Plug-In . SVG Version: 6.00 Build 0)  -->
<!DOCTYPE svg PUBLIC "-//W3C//DTD SVG 1.1//EN" "http://www.w3.org/Graphics/SVG/1.1/DTD/svg11.dtd">
<svg version="1.1" id="Layer_1" xmlns="http://www.w3.org/2000/svg" xmlns:xlink="http://www.w3.org/1999/xlink" x="0px" y="0px"
	 width="98px" height="56px" viewBox="0 0 98 56" enable-background="new 0 0 98 56" xml:space="preserve">
<g>
	<g>
		<path fill="#ffffff" d="M53.016,18.834H39.886l11.399-5.567v-2.754L39.886,4.917h13.129v-4.62H32.158v6.219l11.458,5.36
			l-11.458,5.331v6.248h20.858V18.834z M60.652,0h-5v5h5V0z M60.652,19h-5v5h5V19z M11.721,46.319l-5.4-11.521h-6.33v20.97h4.68
			V42.569l5.64,11.459h2.79l5.67-11.459v13.199h4.68v-20.97h-6.3L11.721,46.319z M28.61,55.769h4.68v-20.97h-4.68V55.769z
			 M48.41,38.789c2.199,0,4.039,0.92,5.52,2.76l2.91-3.3c-2.32-2.62-5.2-3.93-8.64-3.93c-3.081,0-5.685,1.039-7.815,3.119
			c-2.13,2.08-3.195,4.676-3.195,7.785c0,3.11,1.045,5.686,3.135,7.725c2.089,2.041,4.75,3.061,7.979,3.061
			c3.23,0,6.035-1.34,8.415-4.02l-3-3.09c-1.46,1.819-3.34,2.729-5.64,2.729c-1.68,0-3.11-0.59-4.29-1.771
			c-1.181-1.18-1.77-2.744-1.77-4.694s0.625-3.5,1.875-4.65C45.145,39.364,46.65,38.789,48.41,38.789z M65.09,43.409v-8.61h-4.68
			v20.97h4.68v-5.939l2.1-2.34l6.15,8.279h5.46c-0.96-1.34-2.41-3.375-4.35-6.104c-1.94-2.729-3.271-4.595-3.99-5.595l8.34-9.271
			h-5.79L65.09,43.409z M92.93,34.799l-4.53,7.8l-4.53-7.8H78.8l7.26,12.69v8.279h4.68v-8.279L98,34.799H92.93z"/>
	</g>
</g>
</svg>
