<?xml version="1.0" encoding="utf-8"?>
<!-- Generator: Adobe Illustrator 16.0.0, SVG Export Plug-In . SVG Version: 6.00 Build 0)  -->
<!DOCTYPE svg PUBLIC "-//W3C//DTD SVG 1.1//EN" "http://www.w3.org/Graphics/SVG/1.1/DTD/svg11.dtd">
<svg version="1.1"  xmlns="http://www.w3.org/2000/svg" xmlns:xlink="http://www.w3.org/1999/xlink" x="0px" y="0px"
	 width="46px" height="65px" viewBox="0 0 46 65" enable-background="new 0 0 46 65" xml:space="preserve">
<g>
	<path fill="#72CBDD" d="M22.689,1c7.098,0,16.139,3.407,20.231,12.98c0.092,0.209,0.191,0.427,0.295,0.648
		c0.284,0.612,0.577,1.245,0.732,1.813l0.008,0.028l0.01,0.027l0.042,0.122C44.968,19.336,45,19.932,45,19.991v3.062
		c0,5.114-3.55,10.546-6.982,15.802c-1.336,2.041-2.716,4.153-3.89,6.248c-0.162,0.293-0.461,0.645-0.776,1.016
		c-0.358,0.421-0.729,0.855-1.008,1.329c-0.287,0.491-0.595,0.991-0.904,1.495c-0.455,0.742-0.924,1.511-1.338,2.252
		c-1.433,2.375-2.879,4.804-4.334,7.246c-0.924,1.55-1.851,3.104-2.778,4.656l-1.049-1.649c-3.64-5.72-7.404-11.636-10.991-17.535
		c-0.808-1.335-1.687-2.71-2.536-4.039c-3.288-5.146-6.688-10.464-7.319-15.37C1.042,24.043,1.001,23.072,1,22.937v-2.719
		C2.47,7.014,13.267,1,22.689,1 M22.874,31.102c5.336,0,9.677-4.181,9.677-9.319c0-5.227-4.138-9.321-9.421-9.321
		c-4.617,0-9.291,2.884-9.291,8.396v1.811c-0.004,0.72,0.042,1.713,0.291,2.376C15.678,28.894,18.865,31.102,22.874,31.102
		 M22.689,0C12.598,0,1.483,6.586,0,20.163v2.774c0,0.115,0.041,1.155,0.099,1.676c0.832,6.471,6.077,13.346,9.994,19.817
		c4.215,6.935,8.588,13.752,12.921,20.57c2.671-4.449,5.333-8.957,7.943-13.289c0.711-1.271,1.537-2.543,2.249-3.758
		c0.476-0.807,1.382-1.615,1.797-2.367C39.217,38.074,46,30.506,46,23.052V19.99c0-0.809-1.027-3.64-1.087-3.813
		c-0.237-0.867-0.722-1.791-1.077-2.601C39.563,3.582,30.229,0,22.689,0L22.689,0z M22.874,30.102c-2.967,0-6.213-1.444-7.816-5.432
		c-0.238-0.635-0.219-1.906-0.219-2.022v-1.791c0-5.084,4.434-7.396,8.291-7.396c4.748,0,8.421,3.698,8.421,8.321
		C31.551,26.404,27.622,30.102,22.874,30.102L22.874,30.102z"/>
</g>
<path fill="#72CBDD" d="M41.102,17.751c-0.194-0.72-0.595-1.488-0.89-2.16C36.684,7.288,28.971,4.313,22.743,4.313
	C14.407,4.313,5.226,9.784,4,21.063v2.305c0,0.096,0.033,0.96,0.082,1.393c0.687,5.375,5.02,11.087,8.256,16.464
	c3.481,5.758,7.094,11.424,10.673,17.088c2.207-3.695,4.405-7.441,6.563-11.041c0.588-1.057,1.27-2.111,1.857-3.121
	c0.393-0.67,1.143-1.342,1.483-1.967C36.396,35.943,42,29.655,42,23.463v-2.544C42,20.249,41.15,17.896,41.102,17.751z
	 M22.896,29.319c-2.45,0-5.132-1.199-6.456-4.512c-0.197-0.527-0.182-1.584-0.182-1.681v-1.488c0-4.223,3.663-6.144,6.85-6.144
	c3.923,0,6.957,3.072,6.957,6.913C30.063,26.249,26.818,29.319,22.896,29.319z"/>
</svg>
